<mxfile host="drawio-plugin" modified="2021-10-11T19:25:45.276Z" agent="5.0 (Windows NT 6.2; Win64; x64) AppleWebKit/537.36 (KHTML, like Gecko) Chrome/84.0.4147.105 Safari/537.36" etag="HmEbGu2iFqfKH0BgdflP" version="14.6.6" type="embed"><diagram id="23iRSUPoRavnBvh4doch" name="Page-1"><mxGraphModel dx="1037" dy="743" grid="1" gridSize="10" guides="1" tooltips="1" connect="1" arrows="1" fold="1" page="1" pageScale="1" pageWidth="827" pageHeight="1169" math="0" shadow="0"><root><mxCell id="0"/><mxCell id="1" parent="0"/><mxCell id="78" value="" style="rounded=0;whiteSpace=wrap;html=1;align=center;fillColor=#f9f7ed;strokeColor=#36393d;" vertex="1" parent="1"><mxGeometry x="10" y="40" width="800" height="290" as="geometry"/></mxCell><mxCell id="77" value="" style="group" vertex="1" connectable="0" parent="1"><mxGeometry x="30" y="80" width="750" height="210" as="geometry"/></mxCell><mxCell id="28" value="" style="group" vertex="1" connectable="0" parent="77"><mxGeometry width="482" height="210" as="geometry"/></mxCell><mxCell id="29" value="Client" style="shape=umlActor;verticalLabelPosition=bottom;verticalAlign=top;html=1;outlineConnect=0;" vertex="1" parent="28"><mxGeometry y="75" width="30" height="60" as="geometry"/></mxCell><mxCell id="30" value="&lt;h3&gt;Load Balancer&lt;/h3&gt;" style="whiteSpace=wrap;html=1;verticalAlign=middle;textDirection=ltr;align=center;horizontal=1;gradientColor=#97d077;fillColor=#d5e8d4;strokeColor=#82b366;" vertex="1" parent="28"><mxGeometry x="96" width="74" height="210" as="geometry"/></mxCell><mxCell id="31" value="" style="edgeStyle=orthogonalEdgeStyle;rounded=0;orthogonalLoop=1;jettySize=auto;html=1;" edge="1" parent="28" source="29" target="30"><mxGeometry relative="1" as="geometry"/></mxCell><mxCell id="32" value="" style="group" vertex="1" connectable="0" parent="28"><mxGeometry x="230" width="224" height="210" as="geometry"/></mxCell><mxCell id="33" value="&lt;h3&gt;&lt;br&gt;&lt;/h3&gt;" style="rounded=0;whiteSpace=wrap;html=1;fillColor=#f8cecc;align=center;dashed=1;strokeColor=#b85450;" vertex="1" parent="32"><mxGeometry width="224" height="210" as="geometry"/></mxCell><mxCell id="34" value="MyDataApp" style="text;html=1;strokeColor=none;fillColor=none;align=center;verticalAlign=middle;whiteSpace=wrap;rounded=0;dashed=1;" vertex="1" parent="32"><mxGeometry x="32" y="185" width="160" height="20" as="geometry"/></mxCell><mxCell id="35" value="Pod1" style="rounded=0;whiteSpace=wrap;html=1;align=center;fillColor=#dae8fc;strokeColor=#6c8ebf;" vertex="1" parent="32"><mxGeometry x="19" y="25" width="84" height="60" as="geometry"/></mxCell><mxCell id="36" value="Pod2" style="rounded=0;whiteSpace=wrap;html=1;align=center;fillColor=#dae8fc;strokeColor=#6c8ebf;" vertex="1" parent="32"><mxGeometry x="119" y="25" width="84" height="60" as="geometry"/></mxCell><mxCell id="37" value="Pod3" style="rounded=0;whiteSpace=wrap;html=1;align=center;fillColor=#dae8fc;strokeColor=#6c8ebf;" vertex="1" parent="32"><mxGeometry x="19" y="105" width="84" height="60" as="geometry"/></mxCell><mxCell id="38" value="Pod4" style="rounded=0;whiteSpace=wrap;html=1;align=center;fillColor=#dae8fc;strokeColor=#6c8ebf;" vertex="1" parent="32"><mxGeometry x="119" y="105" width="84" height="60" as="geometry"/></mxCell><mxCell id="39" style="edgeStyle=orthogonalEdgeStyle;rounded=0;orthogonalLoop=1;jettySize=auto;html=1;exitX=0.5;exitY=1;exitDx=0;exitDy=0;" edge="1" parent="28" source="30" target="30"><mxGeometry relative="1" as="geometry"/></mxCell><mxCell id="40" style="edgeStyle=orthogonalEdgeStyle;rounded=0;orthogonalLoop=1;jettySize=auto;html=1;exitX=1;exitY=0.25;exitDx=0;exitDy=0;entryX=0;entryY=0.25;entryDx=0;entryDy=0;" edge="1" parent="28" source="30" target="33"><mxGeometry relative="1" as="geometry"/></mxCell><mxCell id="41" style="edgeStyle=orthogonalEdgeStyle;rounded=0;orthogonalLoop=1;jettySize=auto;html=1;exitX=0;exitY=0.75;exitDx=0;exitDy=0;entryX=1;entryY=0.75;entryDx=0;entryDy=0;" edge="1" parent="28" source="33" target="30"><mxGeometry relative="1" as="geometry"/></mxCell><mxCell id="45" style="edgeStyle=orthogonalEdgeStyle;rounded=0;orthogonalLoop=1;jettySize=auto;html=1;exitX=0;exitY=0.75;exitDx=0;exitDy=0;entryX=1;entryY=0.75;entryDx=0;entryDy=0;" edge="1" parent="77" source="42" target="33"><mxGeometry relative="1" as="geometry"/></mxCell><mxCell id="42" value="&lt;h3&gt;&lt;br&gt;&lt;/h3&gt;" style="rounded=0;whiteSpace=wrap;html=1;fillColor=#f8cecc;align=center;dashed=1;strokeColor=#b85450;" vertex="1" parent="77"><mxGeometry x="510" width="240" height="210" as="geometry"/></mxCell><mxCell id="43" value="mongodb sharded cluster" style="text;html=1;strokeColor=none;fillColor=none;align=center;verticalAlign=middle;whiteSpace=wrap;rounded=0;dashed=1;" vertex="1" parent="77"><mxGeometry x="542" y="180" width="160" height="20" as="geometry"/></mxCell><mxCell id="44" style="edgeStyle=orthogonalEdgeStyle;rounded=0;orthogonalLoop=1;jettySize=auto;html=1;exitX=1;exitY=0.25;exitDx=0;exitDy=0;entryX=0;entryY=0.25;entryDx=0;entryDy=0;" edge="1" parent="77" source="33" target="42"><mxGeometry relative="1" as="geometry"/></mxCell><mxCell id="54" value="" style="group" vertex="1" connectable="0" parent="77"><mxGeometry x="517" y="20" width="60" height="160" as="geometry"/></mxCell><mxCell id="46" value="" style="rounded=0;whiteSpace=wrap;html=1;align=center;fillColor=#dae8fc;strokeColor=#6c8ebf;" vertex="1" parent="54"><mxGeometry width="60" height="160" as="geometry"/></mxCell><mxCell id="47" value="Shard1" style="text;html=1;strokeColor=none;fillColor=none;align=center;verticalAlign=middle;whiteSpace=wrap;rounded=0;" vertex="1" parent="54"><mxGeometry x="10" width="40" height="24.615384615384617" as="geometry"/></mxCell><mxCell id="49" value="&lt;font style=&quot;font-size: 10px&quot;&gt;secondary&lt;/font&gt;" style="rounded=0;whiteSpace=wrap;html=1;fillColor=#b0e3e6;align=center;strokeColor=#0e8088;" vertex="1" parent="54"><mxGeometry x="5" y="73.84615384615385" width="50" height="24.615384615384617" as="geometry"/></mxCell><mxCell id="50" value="&lt;font style=&quot;font-size: 10px&quot;&gt;secondary&lt;/font&gt;" style="rounded=0;whiteSpace=wrap;html=1;fillColor=#b0e3e6;align=center;strokeColor=#0e8088;" vertex="1" parent="54"><mxGeometry x="5" y="110.76923076923077" width="50" height="24.615384615384617" as="geometry"/></mxCell><mxCell id="51" value="&lt;span style=&quot;font-size: 10px&quot;&gt;Primary&lt;/span&gt;" style="rounded=0;whiteSpace=wrap;html=1;fillColor=#b0e3e6;align=center;strokeColor=#0e8088;" vertex="1" parent="54"><mxGeometry x="5" y="36.92307692307693" width="50" height="24.615384615384617" as="geometry"/></mxCell><mxCell id="65" value="" style="group" vertex="1" connectable="0" parent="77"><mxGeometry x="670" y="20" width="70" height="160" as="geometry"/></mxCell><mxCell id="66" value="" style="rounded=0;whiteSpace=wrap;html=1;align=center;fillColor=#dae8fc;strokeColor=#6c8ebf;" vertex="1" parent="65"><mxGeometry width="70" height="160" as="geometry"/></mxCell><mxCell id="67" value="Shard.. n" style="text;html=1;strokeColor=none;fillColor=none;align=center;verticalAlign=middle;whiteSpace=wrap;rounded=0;" vertex="1" parent="65"><mxGeometry x="11.666666666666668" width="58.333333333333336" height="24.62" as="geometry"/></mxCell><mxCell id="68" value="&lt;font style=&quot;font-size: 10px&quot;&gt;secondary&lt;/font&gt;" style="rounded=0;whiteSpace=wrap;html=1;fillColor=#b0e3e6;align=center;strokeColor=#0e8088;" vertex="1" parent="65"><mxGeometry x="5.833333333333334" y="73.84615384615385" width="58.333333333333336" height="24.615384615384617" as="geometry"/></mxCell><mxCell id="69" value="&lt;font style=&quot;font-size: 10px&quot;&gt;secondary&lt;/font&gt;" style="rounded=0;whiteSpace=wrap;html=1;fillColor=#b0e3e6;align=center;strokeColor=#0e8088;" vertex="1" parent="65"><mxGeometry x="5.833333333333334" y="110.76923076923077" width="58.333333333333336" height="24.615384615384617" as="geometry"/></mxCell><mxCell id="70" value="&lt;span style=&quot;font-size: 10px&quot;&gt;Primary&lt;/span&gt;" style="rounded=0;whiteSpace=wrap;html=1;fillColor=#b0e3e6;align=center;strokeColor=#0e8088;" vertex="1" parent="65"><mxGeometry x="5.833333333333334" y="36.92307692307693" width="58.333333333333336" height="24.615384615384617" as="geometry"/></mxCell><mxCell id="71" value="" style="group" vertex="1" connectable="0" parent="77"><mxGeometry x="580" y="20" width="60" height="160" as="geometry"/></mxCell><mxCell id="72" value="" style="rounded=0;whiteSpace=wrap;html=1;align=center;fillColor=#dae8fc;strokeColor=#6c8ebf;" vertex="1" parent="71"><mxGeometry width="60" height="160" as="geometry"/></mxCell><mxCell id="73" value="Shard2" style="text;html=1;strokeColor=none;fillColor=none;align=center;verticalAlign=middle;whiteSpace=wrap;rounded=0;" vertex="1" parent="71"><mxGeometry x="10" width="40" height="24.615384615384617" as="geometry"/></mxCell><mxCell id="74" value="&lt;font style=&quot;font-size: 10px&quot;&gt;secondary&lt;/font&gt;" style="rounded=0;whiteSpace=wrap;html=1;fillColor=#b0e3e6;align=center;strokeColor=#0e8088;" vertex="1" parent="71"><mxGeometry x="5" y="73.84615384615385" width="50" height="24.615384615384617" as="geometry"/></mxCell><mxCell id="75" value="&lt;font style=&quot;font-size: 10px&quot;&gt;secondary&lt;/font&gt;" style="rounded=0;whiteSpace=wrap;html=1;fillColor=#b0e3e6;align=center;strokeColor=#0e8088;" vertex="1" parent="71"><mxGeometry x="5" y="110.76923076923077" width="50" height="24.615384615384617" as="geometry"/></mxCell><mxCell id="76" value="&lt;span style=&quot;font-size: 10px&quot;&gt;Primary&lt;/span&gt;" style="rounded=0;whiteSpace=wrap;html=1;fillColor=#b0e3e6;align=center;strokeColor=#0e8088;" vertex="1" parent="71"><mxGeometry x="5" y="36.92307692307693" width="50" height="24.615384615384617" as="geometry"/></mxCell><mxCell id="61" value="" style="endArrow=none;dashed=1;html=1;dashPattern=1 3;strokeWidth=2;exitX=1;exitY=0.5;exitDx=0;exitDy=0;entryX=0;entryY=0.5;entryDx=0;entryDy=0;" edge="1" parent="77" source="72" target="66"><mxGeometry width="50" height="50" relative="1" as="geometry"><mxPoint x="500" y="210" as="sourcePoint"/><mxPoint x="510" y="240" as="targetPoint"/></mxGeometry></mxCell></root></mxGraphModel></diagram></mxfile>